<?xml version="1.0" encoding="utf-8"?>
<!-- Generator: Adobe Illustrator 23.0.1, SVG Export Plug-In . SVG Version: 6.00 Build 0)  -->
<svg version="1.1" xmlns="http://www.w3.org/2000/svg" xmlns:xlink="http://www.w3.org/1999/xlink" x="0px" y="0px"
	 viewBox="0 0 1000 180" style="enable-background:new 0 0 1000 180;" xml:space="preserve">
<style type="text/css">
	.st0{display:none;}
	.st1{display:inline;}
	.st2{fill:#1E2225;}
	.st3{display:inline;fill:none;}
	.st4{display:inline;enable-background:new    ;}
	.st5{fill:#FFFFFF;}
	.st6{fill:#282C47;}
	.st7{fill:none;}
	.st8{enable-background:new    ;}
</style>
<g id="Capa_1" class="st0">
	<g class="st1">
		<circle class="st2" cx="127.5" cy="90.5" r="77.5"/>
	</g>
	<rect x="100.2" y="51.4" class="st3" width="56.4" height="78.5"/>
	<g class="st4">
		<path class="st5" d="M105.9,128.8V51.4h20.2c2.9,0,5.5,0.1,7.7,0.4s4.5,0.9,6.7,1.8c2.2,0.9,4.1,2,5.5,3.5
			c1.4,1.4,2.6,3.4,3.5,5.9c0.8,2.3,1.2,5,1.2,8c0,0.2,0,0.4,0,0.7c-0.1,9-3.9,14.2-11.3,15.5c4.4,0.6,7.8,2.5,10.2,5.6
			s3.5,7.5,3.6,13c0,0.2,0,0.4,0,0.5c0,7.6-2,13.2-5.9,16.8c-4,3.7-9.9,5.6-17.5,5.6H105.9z M123,82.3h3.3c3.7,0,6.2-0.8,7.5-2.5
			c1.3-1.6,2-4.3,2-7.8c0-6.1-3.3-9.1-10-9.1H123V82.3z M123,116.8h3.6c3.7,0,6.3-0.9,7.8-2.7s2.2-4.7,2.2-8.5
			c0-4.4-0.8-7.4-2.3-9.2s-4.2-2.7-8-2.7H123V116.8z"/>
	</g>
	<rect x="240.2" y="51.4" class="st3" width="705.8" height="78.5"/>
	<g class="st4">
		<path class="st2" d="M253.1,128.8V64h-11.9V51.4h40.8V64h-11.8v64.7H253.1z"/>
		<path class="st2" d="M287.8,128.8V51.4h15.6v27.1c3.9-3.9,8.4-5.9,13.5-5.9c3.3,0,5.8,1.2,7.5,3.6c1.7,2.4,2.6,5.5,2.6,9.2v43.4
			h-15.6v-41c0-1.4-0.2-2.4-0.7-3.1c-0.4-0.7-1.2-1-2.4-1c-1.4,0-3,0.7-4.9,2v43.1H287.8z"/>
		<path class="st2" d="M354.5,129.8c-6.1,0-10.8-1.6-14.1-4.9c-3.3-3.3-5-7.9-5-13.8V91.2c0-5.9,1.7-10.5,5-13.8
			c3.3-3.3,8.1-4.9,14.1-4.9c6.1,0,10.7,1.6,13.8,4.7c3.1,3.2,4.6,7.8,4.6,13.9v10.9h-22.1v9.7c0,2.2,0.3,3.9,0.8,5.1
			c0.6,1.1,1.5,1.7,2.8,1.7c2.6,0,3.9-1.8,3.9-5.4v-3.7h14.5v3.2c0,5.5-1.6,9.7-4.8,12.6C364.8,128.3,360.3,129.8,354.5,129.8z
			 M350.8,94.8h7.6v-5.5c0-2.1-0.3-3.5-1-4.4c-0.7-0.9-1.7-1.3-2.9-1.3c-1.2,0-2.1,0.5-2.7,1.5c-0.6,1-0.9,2.7-0.9,5.1V94.8z"/>
		<path class="st2" d="M381.3,128.8V73.5h15.3V78c3.7-3.7,8.1-5.5,13.2-5.5c2.2,0,4.1,0.6,5.7,1.7c1.6,1.1,2.9,2.7,3.7,4.9
			c3.9-4.4,8.6-6.5,14.1-6.5c3.2,0,5.8,1.2,7.7,3.5c1.9,2.4,2.9,5.6,2.9,9.8v42.9h-15.3V87.4c0-1.5-0.3-2.6-0.8-3.3
			c-0.5-0.7-1.4-1-2.5-0.9c-1.7,0.1-3.4,0.7-5.1,2v0.7v42.9h-15.2V87.4c0-1.5-0.3-2.6-0.8-3.3c-0.5-0.7-1.4-1-2.5-1
			c-1.6,0.1-3.3,0.8-5.2,2.1v43.5H381.3z"/>
		<path class="st2" d="M471.3,129.8c-6.1,0-10.8-1.6-14.1-4.9c-3.3-3.3-5-7.9-5-13.8V91.2c0-5.9,1.7-10.5,5-13.8
			c3.3-3.3,8.1-4.9,14.1-4.9c6.1,0,10.7,1.6,13.8,4.7c3.1,3.2,4.6,7.8,4.6,13.9v10.9h-22.1v9.7c0,2.2,0.3,3.9,0.8,5.1
			c0.6,1.1,1.5,1.7,2.8,1.7c2.6,0,3.9-1.8,3.9-5.4v-3.7h14.5v3.2c0,5.5-1.6,9.7-4.8,12.6C481.7,128.3,477.1,129.8,471.3,129.8z
			 M467.6,94.8h7.6v-5.5c0-2.1-0.3-3.5-1-4.4c-0.7-0.9-1.7-1.3-2.9-1.3c-1.2,0-2.1,0.5-2.7,1.5c-0.6,1-0.9,2.7-0.9,5.1V94.8z"/>
		<path class="st2" d="M514.4,129.8c-4.7,0-8.6-1.1-11.7-3.3c-3.1-2.2-5.6-5.7-7.5-10.6l10.8-4.7c1.1,2.6,2.3,4.6,3.7,6.1
			c1.3,1.3,2.6,2,4,2c0.2,0,0.3,0,0.5,0c1-0.1,1.8-0.4,2.4-1.1s1-1.6,0.9-2.6c0-0.5-0.2-1.1-0.6-1.7c-0.4-0.6-1-1.4-2-2.3
			c-1-0.9-1.7-1.6-2.1-1.9c-0.4-0.3-1.3-1.1-2.7-2.3l-4.3-3.7c-6.3-5.3-9.4-10.5-9.4-15.5c0-3,0.8-5.7,2.4-8.1
			c1.6-2.4,3.6-4.2,6.2-5.4c2.6-1.3,5.4-1.9,8.4-1.9c4.5,0,8.3,1.2,11.3,3.7s5.2,6,6.4,10.5l-10.1,4.7c-0.6-2.1-1.5-3.9-2.7-5.5
			s-2.5-2.4-4-2.5c-0.1,0-0.1,0-0.1,0c-1.1,0-2,0.3-2.6,0.9c-0.7,0.6-1,1.4-1.1,2.3c-0.1,1.5,2.1,4.1,6.6,7.9
			c0.4,0.3,0.7,0.6,0.8,0.7l4.2,3.7c1.6,1.4,2.8,2.5,3.6,3.3c0.8,0.8,1.8,1.9,2.9,3.3c1.2,1.4,2,2.8,2.5,4.3c0.5,1.5,0.8,3,0.8,4.7
			c0,3.1-0.8,5.9-2.5,8.2c-1.7,2.3-3.8,4.1-6.5,5.2S517.5,129.8,514.4,129.8z"/>
		<path class="st2" d="M563.9,128.8V51.4h20.2c2.9,0,5.5,0.1,7.7,0.4s4.5,0.9,6.7,1.8s4.1,2,5.5,3.5c1.4,1.4,2.6,3.4,3.5,5.9
			c0.8,2.3,1.2,5,1.2,8c0,0.2,0,0.4,0,0.7c-0.1,9-3.9,14.2-11.3,15.5c4.4,0.6,7.8,2.5,10.2,5.6s3.5,7.5,3.6,13c0,0.2,0,0.4,0,0.5
			c0,7.6-2,13.2-5.9,16.8c-4,3.7-9.9,5.6-17.5,5.6H563.9z M581,82.3h3.3c3.7,0,6.2-0.8,7.5-2.5c1.3-1.6,2-4.3,2-7.8
			c0-6.1-3.3-9.1-10-9.1H581V82.3z M581,116.8h3.6c3.7,0,6.3-0.9,7.8-2.7s2.2-4.7,2.2-8.5c0-4.4-0.8-7.4-2.3-9.2s-4.2-2.7-8-2.7H581
			V116.8z"/>
		<path class="st2" d="M651.6,125.1c-3.4,3.1-8.2,4.7-14.2,4.7c-6,0-10.8-1.6-14.1-4.7s-5.1-7.6-5.1-13.5V90.7
			c0-5.9,1.7-10.4,5.1-13.5s8.1-4.6,14.1-4.6c6,0,10.8,1.6,14.2,4.7c3.4,3.1,5.2,7.6,5.2,13.5v20.9
			C656.8,117.5,655.1,122,651.6,125.1z M637.4,119.3c1.5,0,2.5-0.6,3.1-1.7c0.6-1.1,0.9-2.8,0.9-5v-23c0-2.2-0.3-3.9-0.9-5
			c-0.6-1.1-1.6-1.7-3.1-1.7c-1.4,0-2.4,0.6-3,1.7s-0.9,2.8-0.9,5v23c0,2.1,0.3,3.8,0.9,4.9C635,118.7,636,119.3,637.4,119.3z"/>
		<path class="st2" d="M697.8,125.1c-3.4,3.1-8.2,4.7-14.2,4.7s-10.8-1.6-14.1-4.7c-3.4-3.1-5.1-7.6-5.1-13.5V90.7
			c0-5.9,1.7-10.4,5.1-13.5c3.4-3.1,8.1-4.6,14.1-4.6s10.8,1.6,14.2,4.7c3.4,3.1,5.2,7.6,5.2,13.5v20.9
			C703,117.5,701.2,122,697.8,125.1z M683.6,119.3c1.5,0,2.5-0.6,3.1-1.7s0.9-2.8,0.9-5v-23c0-2.2-0.3-3.9-0.9-5
			c-0.6-1.1-1.6-1.7-3.1-1.7c-1.4,0-2.4,0.6-3,1.7c-0.6,1.1-0.9,2.8-0.9,5v23c0,2.1,0.3,3.8,0.9,4.9
			C681.1,118.7,682.2,119.3,683.6,119.3z"/>
		<path class="st2" d="M727.3,129.4c-1.7-0.1-3.3-0.3-4.6-0.7s-2.6-1-3.5-1.6c-1-0.7-1.8-1.5-2.5-2.5c-0.7-1-1.3-2-1.7-3.1
			c-0.4-1.1-0.8-2.3-1-3.7c-0.2-1.4-0.4-2.7-0.5-4c-0.1-1.3-0.1-2.7-0.1-4.4V83.7h-5.3V73.5h5.3V56.8h15.7v16.8h7.9v10.2h-7.9v28.6
			c0,2.9,1.7,4.4,5,4.5c0.4,0,0.9,0,1.4,0c0.5,0,0.9-0.1,1.3-0.1c0.3,0,0.7-0.1,1-0.2c0.3-0.1,0.5-0.1,0.5-0.1v12.3
			c-3.3,0.6-6.4,0.8-9.2,0.8C728.3,129.5,727.8,129.5,727.3,129.4z"/>
		<path class="st2" d="M761.6,129.8c-4.7,0-8.6-1.1-11.7-3.3s-5.6-5.7-7.5-10.6l10.8-4.7c1.1,2.6,2.3,4.6,3.7,6.1c1.3,1.3,2.6,2,4,2
			c0.2,0,0.3,0,0.5,0c1-0.1,1.8-0.4,2.4-1.1s1-1.6,0.9-2.6c0-0.5-0.2-1.1-0.6-1.7c-0.4-0.6-1-1.4-2-2.3c-1-0.9-1.7-1.6-2.1-1.9
			c-0.4-0.3-1.3-1.1-2.7-2.3l-4.3-3.7c-6.3-5.3-9.4-10.5-9.4-15.5c0-3,0.8-5.7,2.4-8.1c1.6-2.4,3.6-4.2,6.2-5.4s5.4-1.9,8.4-1.9
			c4.5,0,8.3,1.2,11.3,3.7c3,2.5,5.2,6,6.4,10.5l-10.1,4.7c-0.6-2.1-1.5-3.9-2.7-5.5s-2.5-2.4-4-2.5c-0.1,0-0.1,0-0.1,0
			c-1.1,0-2,0.3-2.6,0.9c-0.7,0.6-1,1.4-1.1,2.3c-0.1,1.5,2.1,4.1,6.6,7.9c0.4,0.3,0.7,0.6,0.8,0.7l4.2,3.7c1.6,1.4,2.8,2.5,3.6,3.3
			c0.8,0.8,1.8,1.9,2.9,3.3c1.2,1.4,2,2.8,2.5,4.3c0.5,1.5,0.8,3,0.8,4.7c0,3.1-0.8,5.9-2.5,8.2c-1.7,2.3-3.8,4.1-6.5,5.2
			C767.6,129.2,764.7,129.8,761.6,129.8z"/>
		<path class="st2" d="M801.4,129.4c-1.7-0.1-3.3-0.3-4.6-0.7c-1.4-0.4-2.6-1-3.5-1.6c-1-0.7-1.8-1.5-2.5-2.5c-0.7-1-1.3-2-1.7-3.1
			c-0.4-1.1-0.8-2.3-1-3.7s-0.4-2.7-0.5-4c-0.1-1.3-0.1-2.7-0.1-4.4V83.7h-5.3V73.5h5.3V56.8h15.7v16.8h7.9v10.2h-7.9v28.6
			c0,2.9,1.7,4.4,5,4.5c0.4,0,0.9,0,1.4,0c0.5,0,0.9-0.1,1.3-0.1c0.3,0,0.7-0.1,1-0.2c0.3-0.1,0.5-0.1,0.5-0.1v12.3
			c-3.3,0.6-6.4,0.8-9.2,0.8C802.5,129.5,802,129.5,801.4,129.4z"/>
		<path class="st2" d="M819.7,128.8V73.5h15.6v9.2c3.4-6.6,7.1-9.9,11.1-9.9c0.6,0,1.3,0.1,2.2,0.4V87c-0.9-0.2-1.7-0.3-2.6-0.3
			c-4.3,0.2-7.8,2.4-10.7,6.7v35.4H819.7z"/>
		<path class="st2" d="M866.1,129.8c-3.9-0.1-7-1.5-9.4-4.2c-2.3-2.7-3.5-5.8-3.5-9.3c0-1.8,0.2-3.5,0.7-5.1c0.5-1.6,1-2.9,1.6-4.1
			c0.6-1.2,1.5-2.3,2.7-3.4c1.2-1.1,2.2-2,3.1-2.6c0.9-0.7,2.2-1.4,3.7-2.1c1.5-0.8,2.8-1.3,3.7-1.7c0.9-0.4,2.2-0.9,3.8-1.5
			c1.6-0.6,2.7-1,3.4-1.3V89c0-1.6-0.2-2.8-0.7-3.6s-1.3-1.3-2.6-1.3c-2.1,0-3.2,1.5-3.4,4.4l-0.4,4.1L854.4,92c0-0.1,0-0.4,0-0.9
			c0-0.5,0-0.8,0-0.9c0.5-6,2.3-10.5,5.6-13.3c3.3-2.9,8-4.3,14.1-4.3c5.4,0,9.6,1.5,12.4,4.5c2.8,3,4.3,7,4.3,12.1v25.7
			c0,3.5,0.3,8.2,1,13.9H878c-0.8-4.5-1.2-7.1-1.3-7.8c-0.7,2.5-2,4.6-3.8,6.3C871.1,128.9,868.8,129.8,866.1,129.8z M871.7,119
			c0.7,0,1.5-0.3,2.3-0.8c0.8-0.5,1.4-1.1,1.9-1.8v-15.1c-2.5,1.2-4.5,3-6.1,5.3s-2.4,4.5-2.4,6.6c0,1.8,0.4,3.2,1.2,4.3
			C869.4,118.5,870.5,119,871.7,119z"/>
		<path class="st2" d="M900.2,147V73.5h15.6v4.1c3.8-3.3,7.6-5,11.5-5c0.2,0,0.4,0,0.5,0c4,0.1,6.9,1.7,8.9,4.8
			c1.9,3,2.9,6.9,2.9,11.6v23.6c0,5.3-1,9.5-3.2,12.6c-2.1,3.1-5.1,4.7-9,4.7c-3.9,0-7.7-1.7-11.7-5.1V147H900.2z M920,119.6
			C920,119.6,920.1,119.6,920,119.6c1.4,0,2.4-0.6,3-1.7c0.6-1.2,0.9-2.7,1-4.5V87.7c0-1.7-0.3-3.1-1-4.2c-0.6-1-1.5-1.5-2.7-1.5
			c-0.1,0-0.3,0-0.4,0c-1.2,0.1-2.5,0.7-4.1,1.8v34.3C917.3,119.1,918.7,119.6,920,119.6z"/>
	</g>
</g>
<g id="Capa_2" class="st0">
	<g class="st1">
		<circle class="st2" cx="128.5" cy="90" r="77.5"/>
	</g>
	<rect x="101.2" y="50.9" class="st3" width="56.4" height="78.5"/>
	<g class="st4">
		<path class="st5" d="M106.9,128.3V50.9h20.2c2.9,0,5.5,0.1,7.7,0.4s4.5,0.9,6.7,1.8c2.2,0.9,4.1,2,5.5,3.5
			c1.4,1.4,2.6,3.4,3.5,5.9c0.8,2.3,1.2,5,1.2,8c0,0.2,0,0.4,0,0.7c-0.1,9-3.9,14.2-11.3,15.5c4.4,0.6,7.8,2.5,10.2,5.6
			s3.5,7.5,3.6,13c0,0.2,0,0.4,0,0.5c0,7.6-2,13.2-5.9,16.8c-4,3.7-9.9,5.6-17.5,5.6H106.9z M124,81.8h3.3c3.7,0,6.2-0.8,7.5-2.5
			c1.3-1.6,2-4.3,2-7.8c0-6.1-3.3-9.1-10-9.1H124V81.8z M124,116.3h3.6c3.7,0,6.3-0.9,7.8-2.7s2.2-4.7,2.2-8.5
			c0-4.4-0.8-7.4-2.3-9.2s-4.2-2.7-8-2.7H124V116.3z"/>
	</g>
	<rect x="241.2" y="50.9" class="st3" width="705.8" height="78.5"/>
	<g class="st4">
		<path class="st2" d="M254.1,128.3V63.5h-11.9V50.9h40.8v12.6h-11.8v64.7H254.1z"/>
		<path class="st2" d="M288.8,128.3V50.9h15.6V78c3.9-3.9,8.4-5.9,13.5-5.9c3.3,0,5.8,1.2,7.5,3.6c1.7,2.4,2.6,5.5,2.6,9.2v43.4
			h-15.6v-41c0-1.4-0.2-2.4-0.7-3.1c-0.4-0.7-1.2-1-2.4-1c-1.4,0-3,0.7-4.9,2v43.1H288.8z"/>
		<path class="st2" d="M355.5,129.3c-6.1,0-10.8-1.6-14.1-4.9c-3.3-3.3-5-7.9-5-13.8V90.7c0-5.9,1.7-10.5,5-13.8
			c3.3-3.3,8.1-4.9,14.1-4.9c6.1,0,10.7,1.6,13.8,4.7c3.1,3.2,4.6,7.8,4.6,13.9v10.9h-22.1v9.7c0,2.2,0.3,3.9,0.8,5.1
			c0.6,1.1,1.5,1.7,2.8,1.7c2.6,0,3.9-1.8,3.9-5.4V109h14.5v3.2c0,5.5-1.6,9.7-4.8,12.6C365.8,127.8,361.3,129.3,355.5,129.3z
			 M351.8,94.3h7.6v-5.5c0-2.1-0.3-3.5-1-4.4c-0.7-0.9-1.7-1.3-2.9-1.3c-1.2,0-2.1,0.5-2.7,1.5c-0.6,1-0.9,2.7-0.9,5.1V94.3z"/>
		<path class="st2" d="M382.3,128.3V73h15.3v4.5c3.7-3.7,8.1-5.5,13.2-5.5c2.2,0,4.1,0.6,5.7,1.7c1.6,1.1,2.9,2.7,3.7,4.9
			c3.9-4.4,8.6-6.5,14.1-6.5c3.2,0,5.8,1.2,7.7,3.5c1.9,2.4,2.9,5.6,2.9,9.8v42.9h-15.3V86.9c0-1.5-0.3-2.6-0.8-3.3
			c-0.5-0.7-1.4-1-2.5-0.9c-1.7,0.1-3.4,0.7-5.1,2v0.7v42.9h-15.2V86.9c0-1.5-0.3-2.6-0.8-3.3c-0.5-0.7-1.4-1-2.5-1
			c-1.6,0.1-3.3,0.8-5.2,2.1v43.5H382.3z"/>
		<path class="st2" d="M472.3,129.3c-6.1,0-10.8-1.6-14.1-4.9c-3.3-3.3-5-7.9-5-13.8V90.7c0-5.9,1.7-10.5,5-13.8
			c3.3-3.3,8.1-4.9,14.1-4.9c6.1,0,10.7,1.6,13.8,4.7c3.1,3.2,4.6,7.8,4.6,13.9v10.9h-22.1v9.7c0,2.2,0.3,3.9,0.8,5.1
			c0.6,1.1,1.5,1.7,2.8,1.7c2.6,0,3.9-1.8,3.9-5.4V109h14.5v3.2c0,5.5-1.6,9.7-4.8,12.6C482.7,127.8,478.1,129.3,472.3,129.3z
			 M468.6,94.3h7.6v-5.5c0-2.1-0.3-3.5-1-4.4c-0.7-0.9-1.7-1.3-2.9-1.3c-1.2,0-2.1,0.5-2.7,1.5c-0.6,1-0.9,2.7-0.9,5.1V94.3z"/>
		<path class="st2" d="M515.4,129.3c-4.7,0-8.6-1.1-11.7-3.3c-3.1-2.2-5.6-5.7-7.5-10.6l10.8-4.7c1.1,2.6,2.3,4.6,3.7,6.1
			c1.3,1.3,2.6,2,4,2c0.2,0,0.3,0,0.5,0c1-0.1,1.8-0.4,2.4-1.1s1-1.6,0.9-2.6c0-0.5-0.2-1.1-0.6-1.7c-0.4-0.6-1-1.4-2-2.3
			c-1-0.9-1.7-1.6-2.1-1.9c-0.4-0.3-1.3-1.1-2.7-2.3l-4.3-3.7c-6.3-5.3-9.4-10.5-9.4-15.5c0-3,0.8-5.7,2.4-8.1
			c1.6-2.4,3.6-4.2,6.2-5.4c2.6-1.3,5.4-1.9,8.4-1.9c4.5,0,8.3,1.2,11.3,3.7s5.2,6,6.4,10.5L522.1,91c-0.6-2.1-1.5-3.9-2.7-5.5
			s-2.5-2.4-4-2.5c-0.1,0-0.1,0-0.1,0c-1.1,0-2,0.3-2.6,0.9c-0.7,0.6-1,1.4-1.1,2.3c-0.1,1.5,2.1,4.1,6.6,7.9
			c0.4,0.3,0.7,0.6,0.8,0.7l4.2,3.7c1.6,1.4,2.8,2.5,3.6,3.3c0.8,0.8,1.8,1.9,2.9,3.3c1.2,1.4,2,2.8,2.5,4.3c0.5,1.5,0.8,3,0.8,4.7
			c0,3.1-0.8,5.9-2.5,8.2c-1.7,2.3-3.8,4.1-6.5,5.2S518.5,129.3,515.4,129.3z"/>
		<path class="st2" d="M564.9,128.3V50.9h20.2c2.9,0,5.5,0.1,7.7,0.4s4.5,0.9,6.7,1.8s4.1,2,5.5,3.5c1.4,1.4,2.6,3.4,3.5,5.9
			c0.8,2.3,1.2,5,1.2,8c0,0.2,0,0.4,0,0.7c-0.1,9-3.9,14.2-11.3,15.5c4.4,0.6,7.8,2.5,10.2,5.6s3.5,7.5,3.6,13c0,0.2,0,0.4,0,0.5
			c0,7.6-2,13.2-5.9,16.8c-4,3.7-9.9,5.6-17.5,5.6H564.9z M582,81.8h3.3c3.7,0,6.2-0.8,7.5-2.5c1.3-1.6,2-4.3,2-7.8
			c0-6.1-3.3-9.1-10-9.1H582V81.8z M582,116.3h3.6c3.7,0,6.3-0.9,7.8-2.7s2.2-4.7,2.2-8.5c0-4.4-0.8-7.4-2.3-9.2s-4.2-2.7-8-2.7H582
			V116.3z"/>
		<path class="st2" d="M652.6,124.6c-3.4,3.1-8.2,4.7-14.2,4.7c-6,0-10.8-1.6-14.1-4.7s-5.1-7.6-5.1-13.5V90.2
			c0-5.9,1.7-10.4,5.1-13.5s8.1-4.6,14.1-4.6c6,0,10.8,1.6,14.2,4.7c3.4,3.1,5.2,7.6,5.2,13.5v20.9
			C657.8,117,656.1,121.5,652.6,124.6z M638.4,118.8c1.5,0,2.5-0.6,3.1-1.7c0.6-1.1,0.9-2.8,0.9-5v-23c0-2.2-0.3-3.9-0.9-5
			c-0.6-1.1-1.6-1.7-3.1-1.7c-1.4,0-2.4,0.6-3,1.7s-0.9,2.8-0.9,5v23c0,2.1,0.3,3.8,0.9,4.9C636,118.2,637,118.8,638.4,118.8z"/>
		<path class="st2" d="M698.8,124.6c-3.4,3.1-8.2,4.7-14.2,4.7s-10.8-1.6-14.1-4.7c-3.4-3.1-5.1-7.6-5.1-13.5V90.2
			c0-5.9,1.7-10.4,5.1-13.5c3.4-3.1,8.1-4.6,14.1-4.6s10.8,1.6,14.2,4.7c3.4,3.1,5.2,7.6,5.2,13.5v20.9
			C704,117,702.2,121.5,698.8,124.6z M684.6,118.8c1.5,0,2.5-0.6,3.1-1.7s0.9-2.8,0.9-5v-23c0-2.2-0.3-3.9-0.9-5
			c-0.6-1.1-1.6-1.7-3.1-1.7c-1.4,0-2.4,0.6-3,1.7c-0.6,1.1-0.9,2.8-0.9,5v23c0,2.1,0.3,3.8,0.9,4.9
			C682.1,118.2,683.2,118.8,684.6,118.8z"/>
		<path class="st2" d="M728.3,128.9c-1.7-0.1-3.3-0.3-4.6-0.7s-2.6-1-3.5-1.6c-1-0.7-1.8-1.5-2.5-2.5c-0.7-1-1.3-2-1.7-3.1
			c-0.4-1.1-0.8-2.3-1-3.7c-0.2-1.4-0.4-2.7-0.5-4c-0.1-1.3-0.1-2.7-0.1-4.4V83.2h-5.3V73h5.3V56.3h15.7V73h7.9v10.2h-7.9v28.6
			c0,2.9,1.7,4.4,5,4.5c0.4,0,0.9,0,1.4,0c0.5,0,0.9-0.1,1.3-0.1c0.3,0,0.7-0.1,1-0.2c0.3-0.1,0.5-0.1,0.5-0.1v12.3
			c-3.3,0.6-6.4,0.8-9.2,0.8C729.3,129,728.8,129,728.3,128.9z"/>
		<path class="st2" d="M762.6,129.3c-4.7,0-8.6-1.1-11.7-3.3s-5.6-5.7-7.5-10.6l10.8-4.7c1.1,2.6,2.3,4.6,3.7,6.1c1.3,1.3,2.6,2,4,2
			c0.2,0,0.3,0,0.5,0c1-0.1,1.8-0.4,2.4-1.1s1-1.6,0.9-2.6c0-0.5-0.2-1.1-0.6-1.7c-0.4-0.6-1-1.4-2-2.3c-1-0.9-1.7-1.6-2.1-1.9
			c-0.4-0.3-1.3-1.1-2.7-2.3L754,103c-6.3-5.3-9.4-10.5-9.4-15.5c0-3,0.8-5.7,2.4-8.1c1.6-2.4,3.6-4.2,6.2-5.4s5.4-1.9,8.4-1.9
			c4.5,0,8.3,1.2,11.3,3.7c3,2.5,5.2,6,6.4,10.5L769.3,91c-0.6-2.1-1.5-3.9-2.7-5.5s-2.5-2.4-4-2.5c-0.1,0-0.1,0-0.1,0
			c-1.1,0-2,0.3-2.6,0.9c-0.7,0.6-1,1.4-1.1,2.3c-0.1,1.5,2.1,4.1,6.6,7.9c0.4,0.3,0.7,0.6,0.8,0.7l4.2,3.7c1.6,1.4,2.8,2.5,3.6,3.3
			c0.8,0.8,1.8,1.9,2.9,3.3c1.2,1.4,2,2.8,2.5,4.3c0.5,1.5,0.8,3,0.8,4.7c0,3.1-0.8,5.9-2.5,8.2c-1.7,2.3-3.8,4.1-6.5,5.2
			C768.6,128.7,765.7,129.3,762.6,129.3z"/>
		<path class="st2" d="M802.4,128.9c-1.7-0.1-3.3-0.3-4.6-0.7c-1.4-0.4-2.6-1-3.5-1.6c-1-0.7-1.8-1.5-2.5-2.5c-0.7-1-1.3-2-1.7-3.1
			c-0.4-1.1-0.8-2.3-1-3.7s-0.4-2.7-0.5-4c-0.1-1.3-0.1-2.7-0.1-4.4V83.2h-5.3V73h5.3V56.3h15.7V73h7.9v10.2h-7.9v28.6
			c0,2.9,1.7,4.4,5,4.5c0.4,0,0.9,0,1.4,0c0.5,0,0.9-0.1,1.3-0.1c0.3,0,0.7-0.1,1-0.2c0.3-0.1,0.5-0.1,0.5-0.1v12.3
			c-3.3,0.6-6.4,0.8-9.2,0.8C803.5,129,803,129,802.4,128.9z"/>
		<path class="st2" d="M820.7,128.3V73h15.6v9.2c3.4-6.6,7.1-9.9,11.1-9.9c0.6,0,1.3,0.1,2.2,0.4v13.8c-0.9-0.2-1.7-0.3-2.6-0.3
			c-4.3,0.2-7.8,2.4-10.7,6.7v35.4H820.7z"/>
		<path class="st2" d="M867.1,129.3c-3.9-0.1-7-1.5-9.4-4.2c-2.3-2.7-3.5-5.8-3.5-9.3c0-1.8,0.2-3.5,0.7-5.1c0.5-1.6,1-2.9,1.6-4.1
			c0.6-1.2,1.5-2.3,2.7-3.4c1.2-1.1,2.2-2,3.1-2.6c0.9-0.7,2.2-1.4,3.7-2.1c1.5-0.8,2.8-1.3,3.7-1.7c0.9-0.4,2.2-0.9,3.8-1.5
			c1.6-0.6,2.7-1,3.4-1.3v-5.5c0-1.6-0.2-2.8-0.7-3.6s-1.3-1.3-2.6-1.3c-2.1,0-3.2,1.5-3.4,4.4l-0.4,4.1l-14.6-0.6
			c0-0.1,0-0.4,0-0.9c0-0.5,0-0.8,0-0.9c0.5-6,2.3-10.5,5.6-13.3c3.3-2.9,8-4.3,14.1-4.3c5.4,0,9.6,1.5,12.4,4.5
			c2.8,3,4.3,7,4.3,12.1v25.7c0,3.5,0.3,8.2,1,13.9H879c-0.8-4.5-1.2-7.1-1.3-7.8c-0.7,2.5-2,4.6-3.8,6.3
			C872.1,128.4,869.8,129.3,867.1,129.3z M872.7,118.5c0.7,0,1.5-0.3,2.3-0.8c0.8-0.5,1.4-1.1,1.9-1.8v-15.1c-2.5,1.2-4.5,3-6.1,5.3
			s-2.4,4.5-2.4,6.6c0,1.8,0.4,3.2,1.2,4.3C870.4,118,871.5,118.5,872.7,118.5z"/>
		<path class="st2" d="M901.2,146.5V73h15.6v4.1c3.8-3.3,7.6-5,11.5-5c0.2,0,0.4,0,0.5,0c4,0.1,6.9,1.7,8.9,4.8
			c1.9,3,2.9,6.9,2.9,11.6V112c0,5.3-1,9.5-3.2,12.6c-2.1,3.1-5.1,4.7-9,4.7c-3.9,0-7.7-1.7-11.7-5.1v22.4H901.2z M921,119.1
			C921,119.1,921.1,119.1,921,119.1c1.4,0,2.4-0.6,3-1.7c0.6-1.2,0.9-2.7,1-4.5V87.2c0-1.7-0.3-3.1-1-4.2c-0.6-1-1.5-1.5-2.7-1.5
			c-0.1,0-0.3,0-0.4,0c-1.2,0.1-2.5,0.7-4.1,1.8v34.3C918.3,118.6,919.7,119.1,921,119.1z"/>
	</g>
</g>
<g id="Capa_3">
	<g>
		<g>
			<circle class="st6" cx="128.5" cy="90" r="77.5"/>
		</g>
	</g>
	<rect x="101.2" y="50.9" class="st7" width="56.4" height="78.5"/>
	<g class="st8">
		<path class="st5" d="M129.1,129.3c-4.3,0-8-0.6-11.1-1.8c-3-1.2-5.5-3-7.2-5.3c-1.8-2.3-3-5-3.8-8.1c-0.8-3-1.2-6.6-1.2-10.7V75.9
			c0-4.2,0.4-7.8,1.2-10.9c0.8-3.1,2-5.8,3.8-8.1c1.8-2.3,4.2-4.1,7.2-5.2c3-1.2,6.7-1.8,11.1-1.8c4.2,0,7.7,0.5,10.7,1.6
			c2.9,1.1,5.2,2.6,6.9,4.7c1.7,2.1,2.9,4.4,3.6,7c0.7,2.6,1.1,5.6,1.1,9.1V79h-16.7v-7.8c0-1.2,0-2.1,0-2.8c0-0.6-0.1-1.4-0.3-2.4
			c-0.2-1-0.5-1.7-0.8-2.2c-0.4-0.5-0.9-0.9-1.7-1.3c-0.7-0.4-1.6-0.6-2.7-0.6c-1.1,0-2,0.2-2.7,0.6c-0.7,0.4-1.3,0.9-1.7,1.4
			c-0.4,0.5-0.7,1.3-0.9,2.2c-0.2,0.9-0.4,1.8-0.4,2.6c0,0.8-0.1,1.7-0.1,2.9v36.1c0,3.1,0.4,5.5,1.2,7.1c0.8,1.6,2.3,2.5,4.6,2.5
			c1,0,1.9-0.2,2.6-0.6c0.7-0.4,1.3-0.8,1.7-1.4c0.4-0.5,0.7-1.3,0.9-2.2c0.2-1,0.3-1.8,0.4-2.5c0-0.7,0-1.7,0-2.8v-8.1h16.7v6.7
			c0,2.8-0.2,5.3-0.7,7.5c-0.4,2.2-1.2,4.3-2.2,6.3s-2.4,3.6-4.1,5c-1.7,1.3-3.8,2.4-6.4,3.2C135.5,129,132.5,129.3,129.1,129.3z"/>
	</g>
	<rect x="241.2" y="50.9" class="st7" width="705.8" height="78.5"/>
	<g class="st8">
		<path class="st6" d="M269.1,129.3c-4.3,0-8-0.6-11.1-1.8c-3-1.2-5.5-3-7.2-5.3c-1.8-2.3-3-5-3.8-8.1c-0.8-3-1.2-6.6-1.2-10.7V75.9
			c0-4.2,0.4-7.8,1.2-10.9c0.8-3.1,2-5.8,3.8-8.1c1.8-2.3,4.2-4.1,7.2-5.2c3-1.2,6.7-1.8,11.1-1.8c4.2,0,7.7,0.5,10.7,1.6
			c2.9,1.1,5.2,2.6,6.9,4.7c1.7,2.1,2.9,4.4,3.6,7c0.7,2.6,1.1,5.6,1.1,9.1V79h-16.7v-7.8c0-1.2,0-2.1,0-2.8c0-0.6-0.1-1.4-0.3-2.4
			c-0.2-1-0.5-1.7-0.8-2.2c-0.4-0.5-0.9-0.9-1.7-1.3c-0.7-0.4-1.6-0.6-2.7-0.6c-1.1,0-2,0.2-2.7,0.6c-0.7,0.4-1.3,0.9-1.7,1.4
			c-0.4,0.5-0.7,1.3-0.9,2.2c-0.2,0.9-0.4,1.8-0.4,2.6c0,0.8-0.1,1.7-0.1,2.9v36.1c0,3.1,0.4,5.5,1.2,7.1c0.8,1.6,2.3,2.5,4.6,2.5
			c1,0,1.9-0.2,2.6-0.6c0.7-0.4,1.3-0.8,1.7-1.4c0.4-0.5,0.7-1.3,0.9-2.2c0.2-1,0.3-1.8,0.4-2.5c0-0.7,0-1.7,0-2.8v-8.1h16.7v6.7
			c0,2.8-0.2,5.3-0.7,7.5c-0.4,2.2-1.2,4.3-2.2,6.3s-2.4,3.6-4.1,5c-1.7,1.3-3.8,2.4-6.4,3.2C275.5,129,272.5,129.3,269.1,129.3z"/>
		<path class="st6" d="M300,128.3V73h15.6v9.2c3.4-6.6,7.1-9.9,11.1-9.9c0.6,0,1.3,0.1,2.2,0.4v13.8c-0.9-0.2-1.7-0.3-2.6-0.3
			c-4.3,0.2-7.8,2.4-10.7,6.7v35.4H300z"/>
		<path class="st6" d="M353,129.3c-6.1,0-10.8-1.6-14.1-4.9c-3.3-3.3-5-7.9-5-13.8V90.7c0-5.9,1.7-10.5,5-13.8
			c3.3-3.3,8.1-4.9,14.1-4.9c6.1,0,10.7,1.6,13.8,4.7c3.1,3.2,4.6,7.8,4.6,13.9v10.9h-22.1v9.7c0,2.2,0.3,3.9,0.8,5.1
			c0.6,1.1,1.5,1.7,2.8,1.7c2.6,0,3.9-1.8,3.9-5.4V109h14.5v3.2c0,5.5-1.6,9.7-4.8,12.6C363.4,127.8,358.9,129.3,353,129.3z
			 M349.4,94.3h7.6v-5.5c0-2.1-0.3-3.5-1-4.4c-0.7-0.9-1.7-1.3-2.9-1.3c-1.2,0-2.1,0.5-2.7,1.5c-0.6,1-0.9,2.7-0.9,5.1V94.3z"/>
		<path class="st6" d="M391.3,129.3c-3.9-0.1-7-1.5-9.4-4.2c-2.3-2.7-3.5-5.8-3.5-9.3c0-1.8,0.2-3.5,0.7-5.1c0.5-1.6,1-2.9,1.6-4.1
			c0.6-1.2,1.5-2.3,2.7-3.4c1.2-1.1,2.2-2,3.1-2.6c0.9-0.7,2.2-1.4,3.7-2.1c1.5-0.8,2.8-1.3,3.7-1.7c0.9-0.4,2.2-0.9,3.8-1.5
			c1.6-0.6,2.7-1,3.4-1.3v-5.5c0-1.6-0.2-2.8-0.7-3.6c-0.5-0.8-1.3-1.3-2.6-1.3c-2.1,0-3.2,1.5-3.4,4.4l-0.4,4.1l-14.6-0.6
			c0-0.1,0-0.4,0-0.9c0-0.5,0-0.8,0-0.9c0.5-6,2.3-10.5,5.6-13.3c3.3-2.9,8-4.3,14.1-4.3c5.4,0,9.6,1.5,12.4,4.5
			c2.8,3,4.3,7,4.3,12.1v25.7c0,3.5,0.3,8.2,1,13.9h-13.9c-0.8-4.5-1.2-7.1-1.3-7.8c-0.7,2.5-2,4.6-3.8,6.3
			C396.3,128.4,394,129.3,391.3,129.3z M396.9,118.5c0.7,0,1.5-0.3,2.3-0.8c0.8-0.5,1.4-1.1,1.9-1.8v-15.1c-2.5,1.2-4.5,3-6.1,5.3
			c-1.6,2.3-2.4,4.5-2.4,6.6c0,1.8,0.4,3.2,1.2,4.3C394.6,118,395.7,118.5,396.9,118.5z"/>
		<path class="st6" d="M440.8,128.9c-1.7-0.1-3.3-0.3-4.6-0.7c-1.4-0.4-2.6-1-3.5-1.6c-1-0.7-1.8-1.5-2.5-2.5c-0.7-1-1.3-2-1.7-3.1
			c-0.4-1.1-0.8-2.3-1-3.7c-0.2-1.4-0.4-2.7-0.5-4c-0.1-1.3-0.1-2.7-0.1-4.4V83.2h-5.3V73h5.3V56.3h15.7V73h7.9v10.2h-7.9v28.6
			c0,2.9,1.7,4.4,5,4.5c0.4,0,0.9,0,1.4,0c0.5,0,0.9-0.1,1.3-0.1c0.3,0,0.7-0.1,1-0.2c0.3-0.1,0.5-0.1,0.5-0.1v12.3
			c-3.3,0.6-6.4,0.8-9.2,0.8C441.9,129,441.4,129,440.8,128.9z"/>
		<path class="st6" d="M459,63.7v-11h15.7v11H459z M459.1,128.3V73h15.6v55.3H459.1z"/>
		<path class="st6" d="M491.5,128.3l-11-55.3h14.9l4.5,35.4l4.2-35.4H519l-11.2,55.3H491.5z"/>
		<path class="st6" d="M542.7,129.3c-6.1,0-10.8-1.6-14.1-4.9c-3.3-3.3-5-7.9-5-13.8V90.7c0-5.9,1.7-10.5,5-13.8s8.1-4.9,14.1-4.9
			c6.1,0,10.7,1.6,13.8,4.7c3.1,3.2,4.6,7.8,4.6,13.9v10.9H539v9.7c0,2.2,0.3,3.9,0.8,5.1c0.6,1.1,1.5,1.7,2.8,1.7
			c2.6,0,3.9-1.8,3.9-5.4V109h14.5v3.2c0,5.5-1.6,9.7-4.8,12.6C553,127.8,548.5,129.3,542.7,129.3z M539,94.3h7.6v-5.5
			c0-2.1-0.3-3.5-1-4.4c-0.7-0.9-1.7-1.3-2.9-1.3c-1.2,0-2.1,0.5-2.7,1.5c-0.6,1-0.9,2.7-0.9,5.1V94.3z"/>
		<path class="st6" d="M591.2,128.3l14.7-77.4h19.3l14.6,77.4H624l-2.7-16.4h-11.3l-2.6,16.4H591.2z M611.5,101.6h8.3l-4.2-30
			L611.5,101.6z"/>
		<path class="st6" d="M667.5,144.8c-1.5,0-2.9,0-4.1-0.1c-1.2,0-2.7-0.1-4.3-0.3c-1.7-0.2-3.2-0.4-4.5-0.7s-2.6-0.7-4-1.2
			c-1.4-0.5-2.5-1.2-3.4-1.9c-0.9-0.7-1.6-1.6-2.2-2.7c-0.6-1.1-0.9-2.3-0.9-3.6c0-3.7,2.6-7.3,7.9-11c-2.3-0.8-4-1.8-5-2.8
			c-1.1-1-1.7-2.1-1.9-3.5c-0.1-0.5-0.1-1-0.1-1.5c0-1.5,0.4-2.8,1.3-4.1c1.2-1.6,3-3.4,5.6-5.5c-4-2.9-6-7.5-6-13.7
			c0-6.9,1.7-12,5-15.3c3.3-3.3,8.1-5,14.2-5c5.9,0,10.1,1.6,12.6,4.8c2.3-2.7,4.8-4.8,7.5-6.2l2.1-1l3.6,7.6
			c-0.9,0.3-2.4,0.9-4.4,1.8s-3.6,1.7-4.8,2.4c1.8,2.8,2.8,6.4,2.8,10.8c0,5.9-1.5,10.6-4.5,13.9c-3,3.3-7.6,5-13.7,5
			c-1.5,0-3-0.2-4.7-0.5c-1.7-0.3-3.1-0.7-4.1-1.1c-1.1,1.5-1.7,2.6-1.7,3.5c0,0.1,0,0.2,0,0.4c0.1,0.9,1.8,1.6,5.1,2.1
			c0.9,0.2,2.8,0.4,5.9,0.8c3.1,0.4,5.1,0.6,6.1,0.8c5.3,0.7,9.1,2.1,11.2,4.2c2.2,2.1,3.2,5.1,3.2,9.1c0,2.2-0.3,4.2-1,5.9
			c-0.7,1.7-1.7,3.2-3.2,4.5c-1.5,1.3-3.5,2.3-6.2,3C674.3,144.5,671.2,144.8,667.5,144.8z M667.5,135.1c2.6,0,4.4-0.3,5.6-0.8
			c1.2-0.5,1.8-1.4,2-2.7c0-0.3,0-0.6,0-0.9c0-1.2-0.3-2.1-1-2.6c-0.9-0.7-2.5-1.2-4.8-1.4l-8.4-1c-1.5,2.1-2.2,4-2.2,5.5
			c0,1.4,0.6,2.4,1.9,3.1C662,134.8,664.2,135.1,667.5,135.1z M665.4,101.9c1.8,0,2.9-0.7,3.5-2.2c0.5-1.5,0.8-4.1,0.8-8
			c0-4-0.2-6.7-0.7-8.1c-0.5-1.4-1.7-2.1-3.6-2.1c-0.7,0-1.2,0.1-1.7,0.3c-0.5,0.2-0.9,0.5-1.2,1c-0.3,0.5-0.6,0.9-0.7,1.4
			c-0.2,0.5-0.3,1.1-0.4,2.1c-0.1,0.9-0.1,1.8-0.1,2.5c0,0.7,0,1.8,0,3.1c0,1.8,0,3.3,0.1,4.4c0.1,1.1,0.3,2.1,0.5,3.1
			c0.3,0.9,0.7,1.6,1.3,2.1C663.8,101.6,664.5,101.9,665.4,101.9z"/>
		<path class="st6" d="M712.4,129.3c-6.1,0-10.8-1.6-14.1-4.9c-3.3-3.3-5-7.9-5-13.8V90.7c0-5.9,1.7-10.5,5-13.8
			c3.3-3.3,8.1-4.9,14.1-4.9c6.1,0,10.7,1.6,13.8,4.7c3.1,3.2,4.6,7.8,4.6,13.9v10.9h-22.1v9.7c0,2.2,0.3,3.9,0.8,5.1
			c0.6,1.1,1.5,1.7,2.8,1.7c2.6,0,3.9-1.8,3.9-5.4V109h14.5v3.2c0,5.5-1.6,9.7-4.8,12.6C722.8,127.8,718.3,129.3,712.4,129.3z
			 M708.8,94.3h7.6v-5.5c0-2.1-0.3-3.5-1-4.4c-0.7-0.9-1.7-1.3-2.9-1.3c-1.2,0-2.1,0.5-2.7,1.5c-0.6,1-0.9,2.7-0.9,5.1V94.3z"/>
		<path class="st6" d="M739.3,128.3V73h15.6v5.5c4.4-4.3,8.9-6.4,13.4-6.4c3.3,0,5.8,1.2,7.5,3.6c1.7,2.4,2.6,5.5,2.6,9.2v43.4
			h-15.6v-41c0-1.4-0.2-2.4-0.7-3.1c-0.4-0.7-1.2-1-2.4-1c-1.3,0-2.9,0.6-4.9,1.9v43.2H739.3z"/>
		<path class="st6" d="M805.8,129.3c-6.1,0-10.8-1.6-14.1-4.9c-3.3-3.3-5-7.9-5-13.7v-20c0-5.8,1.7-10.4,5-13.7
			c3.3-3.3,8-4.9,14.1-4.9c6,0,10.6,1.4,13.8,4.2c3.2,2.8,4.8,6.9,4.8,12.4v5.8h-15v-6.3c0-2.1-0.3-3.6-0.9-4.3
			c-0.6-0.8-1.5-1.2-2.7-1.2c-1.2,0-2.1,0.5-2.7,1.4c-0.6,1-0.8,2.6-0.8,5v22.9c0,2.4,0.3,4,0.9,4.9c0.6,0.9,1.5,1.4,2.6,1.4
			c1.2,0,2.1-0.4,2.7-1.2c0.6-0.8,0.9-2.2,0.9-4.1v-7.3h15v6.7c0,5.5-1.6,9.6-4.9,12.5C816.3,127.8,811.7,129.3,805.8,129.3z"/>
		<path class="st6" d="M834,144.3v-10.8c3.4,0,5.8-0.3,7.1-1c1.2-0.6,1.8-1.9,1.8-3.7c0-0.2,0-0.4,0-0.7c-0.2-1.6-0.9-4.5-2.1-8.7
			c-0.3-1.5-2.5-9.2-6.4-23.2s-6.1-21.8-6.4-23.2h14.7l6.9,31.9l5.2-31.9h14.7l-13,58.2c-1.9,8.7-8.5,13-19.7,13c-0.2,0-0.3,0-0.5,0
			H834z"/>
	</g>
</g>
</svg>
